<svg viewBox="0 0 60 53" fill="none" xmlns="http://www.w3.org/2000/svg"><path fill-rule="evenodd" clip-rule="evenodd" d="M28.274 2.946c.773-1.318 2.68-1.318 3.452 0L58.547 48.74c.781 1.334-.18 3.011-1.725 3.011H3.178c-1.545 0-2.506-1.678-1.725-3.01zM28 34V18a2 2 0 1 1 4 0v16a2 2 0 1 1-4 0m2 10a2 2 0 1 0 0-4 2 2 0 0 0 0 4" fill="#E5B53B"/><path d="m31.726 2.946-.863.506zm-3.452 0-.863-.505zM58.547 48.74l.863-.505zm-57.094 0 .862.506zM32.589 2.441c-1.16-1.978-4.019-1.978-5.178 0l1.726 1.01a1 1 0 0 1 1.726 0zM59.41 48.234 32.59 2.44l-1.726 1.01 26.822 45.794zm-2.588 4.516c2.317 0 3.76-2.516 2.588-4.516l-1.725 1.01a1 1 0 0 1-.863 1.506zm-53.644 0h53.644v-2H3.178zM.59 48.234c-1.172 2 .27 4.516 2.588 4.516v-2a1 1 0 0 1-.863-1.505zM27.41 2.44.59 48.234l1.725 1.01L29.137 3.453zM27 18v16h2V18zm3-3a3 3 0 0 0-3 3h2a1 1 0 0 1 1-1zm3 3a3 3 0 0 0-3-3v2a1 1 0 0 1 1 1zm0 16V18h-2v16zm-3 3a3 3 0 0 0 3-3h-2a1 1 0 0 1-1 1zm-3-3a3 3 0 0 0 3 3v-2a1 1 0 0 1-1-1zm4 8a1 1 0 0 1-1 1v2a3 3 0 0 0 3-3zm-1-1a1 1 0 0 1 1 1h2a3 3 0 0 0-3-3zm-1 1a1 1 0 0 1 1-1v-2a3 3 0 0 0-3 3zm1 1a1 1 0 0 1-1-1h-2a3 3 0 0 0 3 3z" fill="currentColor"/></svg>