<svg width="43" height="66" viewBox="0 0 43 66" fill="none" xmlns="http://www.w3.org/2000/svg"><path d="M13 19.111c0-.614.498-1.111 1.111-1.111H28.89a1.11 1.11 0 0 1 1.111 1.111V53.89c0 .613-.497 1.111-1.111 1.111H14.11A1.11 1.11 0 0 1 13 53.889z" fill="currentColor" stroke="currentColor" stroke-width="2.222"/><path fill-rule="evenodd" clip-rule="evenodd" d="M25.278 0a7.5 7.5 0 0 1 7.328 5.895H35a7.5 7.5 0 0 1 7.5 7.5V58.5A7.5 7.5 0 0 1 35 66H8a7.5 7.5 0 0 1-7.5-7.5V13.395a7.5 7.5 0 0 1 7.5-7.5h2.719A7.5 7.5 0 0 1 18.046 0zM11 12.5a3 3 0 0 0-3 3v41a3 3 0 0 0 3 3h21a3 3 0 0 0 3-3v-41a3 3 0 0 0-3-3z" fill="currentColor"/></svg>