<svg viewBox="0 0 61 61" fill="currentColor" xmlns="http://www.w3.org/2000/svg">
  <mask id="a" fill="#fff">
  <path fill-rule="evenodd" clip-rule="evenodd" d="M30.5 61C47.345 61 61 47.345 61 30.5S47.345 0 30.5 0 0 13.655 0 30.5 13.655 61 30.5 61m10.034-20.466a1.59 1.59 0 0 1-2.249 0l-6.578-6.578a1 1 0 0 0-1.414 0l-6.578 6.578a1.59 1.59 0 1 1-2.25-2.249l6.579-6.578a1 1 0 0 0 0-1.414l-6.578-6.578a1.59 1.59 0 1 1 2.249-2.25l6.578 6.579a1 1 0 0 0 1.414 0l6.578-6.578a1.59 1.59 0 1 1 2.25 2.249l-6.579 6.578a1 1 0 0 0 0 1.414l6.578 6.578a1.59 1.59 0 0 1 0 2.25"/>
  </mask>
  <path fill-rule="evenodd" clip-rule="evenodd" d="M30.5 61C47.345 61 61 47.345 61 30.5S47.345 0 30.5 0 0 13.655 0 30.5 13.655 61 30.5 61m10.034-20.466a1.59 1.59 0 0 1-2.249 0l-6.578-6.578a1 1 0 0 0-1.414 0l-6.578 6.578a1.59 1.59 0 1 1-2.25-2.249l6.579-6.578a1 1 0 0 0 0-1.414l-6.578-6.578a1.59 1.59 0 1 1 2.249-2.25l6.578 6.579a1 1 0 0 0 1.414 0l6.578-6.578a1.59 1.59 0 1 1 2.25 2.249l-6.579 6.578a1 1 0 0 0 0 1.414l6.578 6.578a1.59 1.59 0 0 1 0 2.25" fill="#E8693F"/>
  <path d="m38.285 40.534 1.414-1.414zm2.25 0L39.12 39.12zm-8.828-6.578 1.414-1.414zm-1.414 0-1.414-1.414zm-6.578 6.578-1.414-1.414zm-2.25 0 1.415-1.414zm0-2.249 1.415 1.414zm6.579-6.578 1.414 1.414zm0-1.414 1.414-1.414zm-6.578-6.578 1.414-1.414zm0-2.25 1.414 1.415zm2.249 0-1.414 1.415zm6.578 6.579 1.414-1.415zm1.414 0-1.414-1.415zm6.578-6.578-1.414-1.414zm-4.329 8.827 1.414 1.414zm0 1.414 1.414-1.414zm6.578 6.578-1.414 1.414zM59 30.5C59 46.24 46.24 59 30.5 59v4C48.45 63 63 48.45 63 30.5zM30.5 2C46.24 2 59 14.76 59 30.5h4C63 12.55 48.45-2 30.5-2zM2 30.5C2 14.76 14.76 2 30.5 2v-4C12.55-2-2 12.55-2 30.5zM30.5 59C14.76 59 2 46.24 2 30.5h-4C-2 48.45 12.55 63 30.5 63zm6.37-17.052a3.59 3.59 0 0 0 5.078 0L39.12 39.12a.41.41 0 0 1 .58 0zm-6.577-6.578 6.578 6.578 2.828-2.828-6.578-6.578zm1.414 0a1 1 0 0 1-1.414 0l2.828-2.828a3 3 0 0 0-4.242 0zm-6.578 6.578 6.578-6.578-2.828-2.828L22.3 39.12zm-5.077 0a3.59 3.59 0 0 0 5.077 0l-2.828-2.828a.41.41 0 0 1 .579 0zm0-5.077a3.59 3.59 0 0 0 0 5.077l2.828-2.828c.16.16.16.42 0 .58zm6.578-6.578-6.578 6.578 2.828 2.828 6.578-6.578zm0 1.414a1 1 0 0 1 0-1.414l2.828 2.828a3 3 0 0 0 0-4.242zm-6.578-6.578 6.578 6.578 2.828-2.828L22.88 22.3zm0-5.077a3.59 3.59 0 0 0 0 5.077l2.828-2.828c.16.16.16.42 0 .579zm5.077 0a3.59 3.59 0 0 0-5.077 0l2.828 2.828a.41.41 0 0 1-.58 0zm6.578 6.578-6.578-6.578-2.828 2.828 6.578 6.578zm-1.414 0a1 1 0 0 1 1.414 0l-2.828 2.828a3 3 0 0 0 4.242 0zm6.578-6.578-6.578 6.578 2.828 2.828L39.7 22.88zm5.077 0a3.59 3.59 0 0 0-5.077 0l2.828 2.828a.41.41 0 0 1-.579 0zm0 5.077a3.59 3.59 0 0 0 0-5.077L39.12 22.88a.41.41 0 0 1 0-.58zm-6.578 6.578 6.578-6.578-2.828-2.828-6.578 6.578zm0-1.414a1 1 0 0 1 0 1.414l-2.828-2.828a3 3 0 0 0 0 4.242zm6.578 6.578-6.578-6.578-2.828 2.828L39.12 39.7zm0 5.077a3.59 3.59 0 0 0 0-5.077l-2.828 2.828a.41.41 0 0 1 0-.579z" fill="#currentColor" mask="url(#a)"/>
</svg>