<svg width="120" height="120" viewBox="0 0 120 120" fill="none" xmlns="http://www.w3.org/2000/svg"><path d="M114 100.819H6v6.225C6 108.677 7.343 110 9 110h102c1.657 0 3-1.323 3-2.956z" fill="#E8693F"/><path fill-rule="evenodd" clip-rule="evenodd" d="m22.5 59.5 26 11.5v5.5a3 3 0 0 0 3 3h15.09a3 3 0 0 0 3-3V71L95.5 59.5l18.5-7.72v49.039H6l-.074-49.04z" fill="#E8693F"/><path d="M4 42.09v6.887a3 3 0 0 0 1.855 2.773l.07.03L22.5 59.5V24.286L5.698 32.378A3 3 0 0 0 4 35.081zm110.109 9.645A3 3 0 0 0 116 48.95V35.163a3 3 0 0 0-1.804-2.751L95.5 24.286V59.5l18.5-7.72zM41.5 16.897h35L58.5 10z" fill="#B43910"/><path d="M69.59 71 95.5 59.5V19.896a3 3 0 0 0-3-3h-67a3 3 0 0 0-3 3V59.5l26 11.5v-3.8a3 3 0 0 1 3-3h15.09a3 3 0 0 1 3 3z" fill="#FAEFDE"/><path d="M66.59 79.5a3 3 0 0 0 3-3v-9.3a3 3 0 0 0-3-3H51.5a3 3 0 0 0-3 3v9.3a3 3 0 0 0 3 3z" fill="#E5B53B"/><path d="M69.59 71 95.5 59.5M69.59 71v5.5a3 3 0 0 1-3 3H51.5a3 3 0 0 1-3-3V71m21.09 0v-3.8a3 3 0 0 0-3-3H51.5a3 3 0 0 0-3 3V71M6 100.819h108m-108 0v6.225m0-6.225-.074-49.04M114 100.82v6.225m0-6.225V51.78M111 110H9m102 0c1.657 0 3-1.323 3-2.956M111 110h.044a2.955 2.955 0 0 0 2.956-2.956v0M9 110c-1.657 0-3-1.323-3-2.956M9 110h-.044A2.956 2.956 0 0 1 6 107.044v0M114 51.78l.109-.044A3 3 0 0 0 116 48.95V35.163a3 3 0 0 0-1.804-2.751L95.5 24.286M114 51.78 95.5 59.5M5.926 51.78l-.071-.03A3 3 0 0 1 4 48.977V35.081a3 3 0 0 1 1.698-2.703L22.5 24.286M5.926 51.78 22.5 59.5m0 0 26 11.5m-26-11.5V24.286m73 35.214V24.286m-19-7.39L58.5 10l-17 6.897m35 0h-35m35 0h16a3 3 0 0 1 3 3v4.389m-54-7.39h-16a3 3 0 0 0-3 3v4.39m11.5 1.97h49.5m0 10.838H34m0 9.852h49.5M34 56.552h49.5" stroke="#000" stroke-width="3" stroke-linecap="round"/></svg>