<svg width="120" height="120" viewBox="0 0 120 120" fill="none" xmlns="http://www.w3.org/2000/svg"><path d="M66.591 64.2a3 3 0 0 1 3 3V71L114 51.906l.123-.05a3 3 0 0 0 1.877-2.78V32.044a3 3 0 0 0-3-3H7a3 3 0 0 0-3 3v17.06a3 3 0 0 0 1.84 2.766l.086.036L48.5 71v-3.8a3 3 0 0 1 3-3z" fill="#E8693F"/><path d="M69.591 76.5a3 3 0 0 1-3 3H51.5a3 3 0 0 1-3-3V71L5.926 51.906 6 100.681h108V51.906L69.591 71z" fill="#E8693F"/><path d="M48.5 76.5a3 3 0 0 0 3 3h15.091a3 3 0 0 0 3-3v-9.3a3 3 0 0 0-3-3H51.5a3 3 0 0 0-3 3z" fill="#E5B53B"/><path d="M114 100.681H6V107a3 3 0 0 0 3 3h102a3 3 0 0 0 3-3zM79.96 29.044h6.54V13a3 3 0 0 0-3-3h-47a3 3 0 0 0-3 3v16.044h6.54V17.989a1 1 0 0 1 1-1h37.92a1 1 0 0 1 1 1z" fill="#E8693F"/><path d="M33.5 29.044h6.54m-6.54 0H7m26.5 0V13m53 16.044h-6.54m6.54 0V13m0 16.044H113M48.5 71v-3.8a3 3 0 0 1 3-3h15.091a3 3 0 0 1 3 3V71M48.5 71v5.5a3 3 0 0 0 3 3h15.091a3 3 0 0 0 3-3V71M48.5 71 5.926 51.906M69.59 71 114 51.906M6 100.681h108m-108 0V107m0-6.319-.074-48.775M114 100.681V107m0-6.319V51.906M79.96 29.044V17.989a1 1 0 0 0-1-1H41.04a1 1 0 0 0-1 1v11.055m39.92 0H40.04M111 110H9m102 0a3 3 0 0 0 3-3m-3 3a3 3 0 0 0 3-3M9 110a3 3 0 0 1-3-3m3 3a3 3 0 0 1-3-3M4 32.044v17.06a3 3 0 0 0 1.84 2.766l.086.036M4 32.044a3 3 0 0 1 3-3m-3 3a3 3 0 0 1 3-3M33.5 13a3 3 0 0 1 3-3m-3 3a3 3 0 0 1 3-3m0 0h47m0 0a3 3 0 0 1 3 3m-3-3a3 3 0 0 1 3 3M113 29.044a3 3 0 0 1 3 3m-3-3a3 3 0 0 1 3 3m0 0v17.031a3 3 0 0 1-1.877 2.782l-.123.05" stroke="#000" stroke-width="3"/></svg>