<svg fill="none" xmlns="http://www.w3.org/2000/svg" viewBox="0 0 120 120"><path d="M100 34.364V31.5C100 21.283 91.717 13 81.5 13v16.364a5 5 0 0 0 5 5H100Z" fill="#FFE7C2"/><path fill-rule="evenodd" clip-rule="evenodd" d="M29 13h52.5v16.364a5 5 0 0 0 5 5H100V102a5 5 0 0 1-5 5H29V13Z" fill="#FAEFDE"/><path d="M25 13a5 5 0 0 0-5 5v84a5 5 0 0 0 5 5h4V13h-4Z" fill="#FFE7C2"/><path d="M100 34.364V31.5C100 21.283 91.717 13 81.5 13M100 34.364V102a5 5 0 0 1-5 5H29m71-72.636H86.5a5 5 0 0 1-5-5V13m0 0H29m0 0h-4a5 5 0 0 0-5 5v84a5 5 0 0 0 5 5h4m0-94v94" stroke="#000" stroke-width="3"/><path d="M39 30h31.596M39 44.633h46m-46 13.12h46M39 71.375h46M39 85h46" stroke="#000" stroke-width="3" stroke-linecap="round"/><circle cx="87.5" cy="90.5" r="22.5" fill="#929DE3" stroke="#000" stroke-width="3"/><circle cx="90" cy="78" r="4" fill="#FAEFDE" stroke="#000" stroke-width="2"/><path d="M83.117 86.638c1.684-.975 5.912-.706 7.931-.508a.968.968 0 0 1 .84 1.206l-3.792 15.325c-.163.658.362 1.287 1.04 1.294 1.47.015 3.29.237.844 1.439-2.714 1.335-6.59.92-8.405.619-.556-.093-.888-.645-.741-1.19l4.131-15.33c.162-.6-.257-1.201-.865-1.324-1.118-.225-2.433-.691-.983-1.53Z" fill="#FAEFDE" stroke="#000" stroke-width="2"/></svg>