<svg fill="none" xmlns="http://www.w3.org/2000/svg" viewBox="0 0 120 120"><path d="M100 34.364V31.5C100 21.283 91.717 13 81.5 13v16.364a5 5 0 0 0 5 5H100Z" fill="#FFE7C2"/><path fill-rule="evenodd" clip-rule="evenodd" d="M29 13h52.5v16.364a5 5 0 0 0 5 5H100V102a5 5 0 0 1-5 5H29V13Z" fill="#FAEFDE"/><path d="M25 13a5 5 0 0 0-5 5v84a5 5 0 0 0 5 5h4V13h-4Z" fill="#FFE7C2"/><path d="M100 34.364V31.5C100 21.283 91.717 13 81.5 13M100 34.364V102a5 5 0 0 1-5 5H29m71-72.636H86.5a5 5 0 0 1-5-5V13m0 0H29m0 0h-4a5 5 0 0 0-5 5v84a5 5 0 0 0 5 5h4m0-94v94" stroke="#000" stroke-width="3"/><path d="M39 30h31.596M39 44.633h46m-46 13.12h46M39 71.375h46M39 85h46" stroke="#000" stroke-width="3" stroke-linecap="round"/><circle cx="87.5" cy="90.5" r="22.5" fill="#929DE3" stroke="#000" stroke-width="3"/><circle cx="90" cy="79" r="3" fill="#FAEFDE" stroke="#000" stroke-width="2"/><path d="M85.205 85.777c1.104-1.08 3.62-1.115 5.057-1.034.576.032.964.572.85 1.138l-3.473 17.193c-.141.697.478 1.3 1.189 1.336.783.039 1.324.352-.073 1.538-1.796 1.525-4.2 1.408-5.48 1.201-.512-.083-.81-.584-.7-1.091l3.743-17.4c.129-.597-.317-1.153-.89-1.365-.613-.228-1.087-.67-.223-1.516Z" fill="#FAEFDE" stroke="#000" stroke-width="2"/></svg>