<svg viewBox="0 0 100 112" fill="none" xmlns="http://www.w3.org/2000/svg"><rect x="17.602" y="19.495" width="63.883" height="52.019" rx="3.65" fill="gray" stroke="#000" stroke-width="2.738"/><rect x="24.903" y="25.884" width="49.282" height="39.243" rx="2.738" fill="#2693BD" stroke="#000" stroke-width="2.738"/><path d="M47.718 7.631a1.825 1.825 0 0 1 3.65 0V17.67a1.825 1.825 0 1 1-3.65 0z" fill="#000"/><circle cx="49.544" cy="5.806" r="3.194" fill="#2693BD" stroke="#000" stroke-width="2.738"/><circle cx="38.592" cy="44.136" r="2.738" fill="#FFFDF9"/><path d="M55.02 46.874a5.476 5.476 0 1 1-10.952 0" stroke="#FFFDF9" stroke-width="1.825"/><circle cx="60.495" cy="44.136" r="2.738" fill="#FFFDF9"/><path d="M35.398 71.97H63.69v10.04H35.4z" fill="#434343" stroke="#000" stroke-width="2.738"/><mask id="a" maskUnits="userSpaceOnUse" x="7.689" y="34.748" width="9" height="23" fill="#000"><path fill="#fff" d="M7.689 34.748h9v23h-9z"/><path d="M16.69 37.748h-2.74a2.74 2.74 0 0 0-2.737 2.737v10.952a2.74 2.74 0 0 0 2.737 2.738h2.738z"/></mask><path d="M16.69 37.748h-2.74a2.74 2.74 0 0 0-2.737 2.737v10.952a2.74 2.74 0 0 0 2.737 2.738h2.738z" fill="#E8693F"/><path d="M16.69 35.01h-2.74a5.476 5.476 0 0 0-5.475 5.475h8.213zM8.475 51.437a5.476 5.476 0 0 0 5.475 5.476h2.738v-5.476H8.476m8.213 2.738V37.748zM13.951 35.01a5.476 5.476 0 0 0-5.475 5.475v10.952a5.476 5.476 0 0 0 5.475 5.476z" fill="#000" mask="url(#a)"/><mask id="b" maskUnits="userSpaceOnUse" x="82.398" y="35.66" width="9" height="23" fill="#000"><path fill="#fff" d="M82.398 35.66h9v23h-9z"/><path d="M82.398 38.66h2.738a2.74 2.74 0 0 1 2.738 2.738V52.35a2.74 2.74 0 0 1-2.738 2.738h-2.738z"/></mask><path d="M82.398 38.66h2.738a2.74 2.74 0 0 1 2.738 2.738V52.35a2.74 2.74 0 0 1-2.738 2.738h-2.738z" fill="#E8693F"/><path d="M82.398 35.922h2.738a5.476 5.476 0 0 1 5.476 5.476h-8.214zm8.214 16.428a5.476 5.476 0 0 1-5.476 5.475h-2.738V52.35zm-8.214 2.737V38.66zm2.738-19.165a5.476 5.476 0 0 1 5.476 5.476V52.35a5.476 5.476 0 0 1-5.476 5.476z" fill="#000" mask="url(#b)"/><path d="M10.301 82.01h79.398a5.93 5.93 0 0 1 5.932 5.932v19.165a3.194 3.194 0 0 1-3.194 3.194H7.563a3.194 3.194 0 0 1-3.194-3.194V87.942A5.93 5.93 0 0 1 10.3 82.01Z" fill="gray" stroke="#000" stroke-width="2.738"/><path d="M7.301 89.369h85.398a5.93 5.93 0 0 1 5.932 5.932v15.33H1.37v-15.33a5.93 5.93 0 0 1 5.93-5.932Z" fill="#434343" stroke="#000" stroke-width="2.738"/><path d="M7.301 82.01h12.777a5.93 5.93 0 0 1 5.932 5.932v16.883H1.369V87.942A5.93 5.93 0 0 1 7.3 82.01Z" fill="gray" stroke="#000" stroke-width="2.738"/><path d="M7.301 82.01h12.777a5.93 5.93 0 0 1 5.932 5.932V110.3H1.369V87.94A5.93 5.93 0 0 1 7.3 82.01Z" stroke="#000" stroke-width="2.738"/><path d="M79.922 82.01H92.7a5.93 5.93 0 0 1 5.932 5.932v16.883h-24.64V87.942a5.93 5.93 0 0 1 5.931-5.932Z" fill="gray" stroke="#000" stroke-width="2.738"/><path d="M79.922 82.01H92.7a5.93 5.93 0 0 1 5.932 5.932V110.3h-24.64V87.94a5.93 5.93 0 0 1 5.931-5.931Z" stroke="#000" stroke-width="2.738"/><path d="M39.563 99.369h20.874a3.194 3.194 0 0 1 3.194 3.194v7.068H36.37v-7.068a3.194 3.194 0 0 1 3.194-3.194Z" fill="#E5B53B" stroke="#000" stroke-width="2.738"/></svg>