<svg width="61" height="61" viewBox="0 0 61 61" fill="currentColor" xmlns="http://www.w3.org/2000/svg"><path d="M15.587 44.67H8.414C3.767 44.67 0 40.94 0 36.336V22.998c0-4.604 3.767-8.336 8.414-8.336h8.809L30.61 1.017c2.107-2.147 5.78-.67 5.78 2.323v54.318c0 2.993-3.673 4.47-5.78 2.324z" fill="currentColor"/><path clip-rule="evenodd" d="M42.002 16.007a2.115 2.115 0 0 1 2.916-.578c2.333 1.54 5.986 6.286 5.986 14.237s-3.653 12.697-5.986 14.238a2.116 2.116 0 0 1-2.916-.578 2.07 2.07 0 0 1 .583-2.89c1.033-.682 4.112-4.05 4.112-10.77s-3.08-10.087-4.112-10.77a2.07 2.07 0 0 1-.583-2.89" fill="currentColor"/><path fill-rule="evenodd" clip-rule="evenodd" d="M47.313 5.687a2.117 2.117 0 0 1 2.974 0c3.709 3.673 6.412 7.325 8.175 11.381C60.228 21.131 61 25.486 61 30.5c0 10.362-5.044 17.53-10.713 23.146a2.117 2.117 0 0 1-2.974 0 2.07 2.07 0 0 1 0-2.947c5.269-5.22 9.48-11.39 9.48-20.199 0-4.572-.7-8.345-2.195-11.784-1.497-3.445-3.842-6.67-7.285-10.082a2.07 2.07 0 0 1 0-2.947" fill="currentColor"/></svg>