<svg viewBox="0 0 61 61" fill="none" xmlns="http://www.w3.org/2000/svg"><mask id="a" fill="#fff"><path fill-rule="evenodd" clip-rule="evenodd" d="M30.5 61C47.345 61 61 47.345 61 30.5S47.345 0 30.5 0 0 13.655 0 30.5 13.655 61 30.5 61m-4.377-23.202 1.587 1.218a2 2 0 0 0 2.804-.37l9.74-12.693a2.003 2.003 0 0 0-3.174-2.445l-8.44 10.918-3.994-3.135a2 2 0 0 0-2.862.411l-.159.222a2 2 0 0 0 .413 2.752z"/></mask><path fill-rule="evenodd" clip-rule="evenodd" d="M30.5 61C47.345 61 61 47.345 61 30.5S47.345 0 30.5 0 0 13.655 0 30.5 13.655 61 30.5 61m-4.377-23.202 1.587 1.218a2 2 0 0 0 2.804-.37l9.74-12.693a2.003 2.003 0 0 0-3.174-2.445l-8.44 10.918-3.994-3.135a2 2 0 0 0-2.862.411l-.159.222a2 2 0 0 0 .413 2.752z" fill="#5A9651"/><path d="m27.71 39.016-1.217 1.587zm-1.587-1.218 1.218-1.586-.003-.003zm4.391.849-1.586-1.218zm9.74-12.694 1.587 1.218zm-.372-2.806-1.217 1.586zm-2.802.361 1.582 1.223zm-8.44 10.918-1.234 1.573 1.585 1.243 1.232-1.593zm-3.994-3.135 1.235-1.573zm-2.862.411-1.627-1.162zm-.159.222 1.628 1.163zm.413 2.752-1.214 1.589zM59 30.5C59 46.24 46.24 59 30.5 59v4C48.45 63 63 48.45 63 30.5zM30.5 2C46.24 2 59 14.76 59 30.5h4C63 12.55 48.45-2 30.5-2zM2 30.5C2 14.76 14.76 2 30.5 2v-4C12.55-2-2 12.55-2 30.5zM30.5 59C14.76 59 2 46.24 2 30.5h-4C-2 48.45 12.55 63 30.5 63zm-1.572-21.57-1.587-1.218-2.435 3.173 1.587 1.218zm0 0-2.435 3.173a4 4 0 0 0 5.608-.739zm9.74-12.695-9.74 12.694 3.173 2.435 9.74-12.693zm-.003-.002.002.002zv.004q0 .004.001.001l.001-.003q0-.002 0 0l3.173 2.436a4.003 4.003 0 0 0-.741-5.611zm-.003-.002q.002-.002 0 0l-.002.002h.004zl.002.001L41.1 21.56a4.003 4.003 0 0 0-5.603.725zM30.223 35.65l8.44-10.918-3.166-2.446-8.439 10.917zm-6.811-2.784L27.406 36l2.47-3.147-3.995-3.134zm0 0 2.469-3.147a4 4 0 0 0-5.724.822zm-.16.222.16-.222-3.255-2.325-.16.222zm0 0-3.254-2.325a4 4 0 0 0 .826 5.503zm4.086 3.122-4.085-3.122-2.43 3.178 4.086 3.122z" fill="currentColor" mask="url(#a)"/></svg>