<svg width="41" height="28" viewBox="0 0 41 28" fill="none" xmlns="http://www.w3.org/2000/svg"><path d="M12.96 21.419c-.812-.824-.82-2.176.116-2.852a12.36 12.36 0 0 1 7.235-2.345c2.61 0 5.137.83 7.236 2.345.935.676.927 2.028.115 2.852l-5.88 5.963a2.06 2.06 0 0 1-2.94 0zM20.536.76A29.22 29.22 0 0 0 1.23 8.07c-.868.765-.863 2.106-.05 2.93l2.45 2.485c.812.823 2.122.814 3.008.072a21.56 21.56 0 0 1 13.9-5.066c5.28 0 10.123 1.902 13.898 5.066.886.742 2.196.75 3.008-.072L39.893 11c.813-.824.817-2.165-.05-2.929A29.22 29.22 0 0 0 20.536.76" fill="currentColor"/></svg>