<svg width="61" height="42" viewBox="0 0 61 42" fill="none" xmlns="http://www.w3.org/2000/svg"><path d="M22.96 35.419c-.812-.824-.82-2.176.116-2.851a12.36 12.36 0 0 1 7.235-2.346c2.61 0 5.137.83 7.236 2.346.935.675.927 2.027.115 2.85l-5.88 5.964a2.06 2.06 0 0 1-2.94 0zm7.576-20.659a29.22 29.22 0 0 0-19.306 7.31c-.867.764-.862 2.105-.05 2.929l2.45 2.485c.812.823 2.123.814 3.008.072a21.56 21.56 0 0 1 13.9-5.066c5.28 0 10.123 1.901 13.898 5.066.886.742 2.196.75 3.008-.072L49.893 25c.813-.824.817-2.165-.05-2.929a29.22 29.22 0 0 0-19.307-7.311" fill="currentColor"/><path d="M13.526 3.424A44.3 44.3 0 0 0 .64 11.719c-.85.784-.846 2.123-.034 2.947l2.45 2.485c.812.823 2.125.818 2.981.043C12.533 11.309 21.105 7.73 30.5 7.73s17.967 3.578 24.463 9.463c.856.775 2.169.78 2.98-.043l2.451-2.485c.812-.824.815-2.163-.034-2.947a44.3 44.3 0 0 0-12.886-8.295A43.8 43.8 0 0 0 30.5 0a43.8 43.8 0 0 0-16.974 3.424" fill="currentColor"/></svg>