<svg width="160" height="160" viewBox="0 0 160 160" fill="none" xmlns="http://www.w3.org/2000/svg">
<rect x="4" y="4" width="152" height="152" rx="16" fill="#719DCE"/>
<rect x="4" y="4" width="152" height="152" rx="16" stroke="black" stroke-width="8"/>
<g filter="url(#filter0_d_1_8)">
<path d="M49.75 34C46.5744 34 44 36.5744 44 39.75C44 42.9256 46.5744 45.5 49.75 45.5H61.0731C65.4781 45.5 67.6805 45.5 69.3689 46.3436C70.9186 47.118 72.1751 48.3745 72.9495 49.9242C73.7931 51.6126 73.7931 53.815 73.7931 58.22V101.78C73.7931 106.185 73.7931 108.387 72.9495 110.076C72.1751 111.626 70.9186 112.882 69.3689 113.656C67.6805 114.5 65.4781 114.5 61.0731 114.5H49.75C46.5744 114.5 44 117.074 44 120.25C44 123.426 46.5744 126 49.75 126H110.25C113.426 126 116 123.426 116 120.25C116 117.074 113.426 114.5 110.25 114.5H97.22C92.815 114.5 90.6126 114.5 88.9242 113.656C87.3745 112.882 86.118 111.626 85.3436 110.076C84.5 108.387 84.5 106.185 84.5 101.78V80V58.22C84.5 53.815 84.5 51.6126 85.3436 49.9242C86.118 48.3745 87.3745 47.118 88.9242 46.3436C90.6126 45.5 92.815 45.5 97.22 45.5H110.25C113.426 45.5 116 42.9256 116 39.75C116 36.5744 113.426 34 110.25 34H49.75Z" fill="black"/>
</g>
<defs>
<filter id="filter0_d_1_8" x="44" y="34" width="76" height="96" filterUnits="userSpaceOnUse" color-interpolation-filters="sRGB">
<feFlood flood-opacity="0" result="BackgroundImageFix"/>
<feColorMatrix in="SourceAlpha" type="matrix" values="0 0 0 0 0 0 0 0 0 0 0 0 0 0 0 0 0 0 127 0" result="hardAlpha"/>
<feOffset dx="4" dy="4"/>
<feComposite in2="hardAlpha" operator="out"/>
<feColorMatrix type="matrix" values="0 0 0 0 0 0 0 0 0 0 0 0 0 0 0 0 0 0 0.25 0"/>
<feBlend mode="normal" in2="BackgroundImageFix" result="effect1_dropShadow_1_8"/>
<feBlend mode="normal" in="SourceGraphic" in2="effect1_dropShadow_1_8" result="shape"/>
</filter>
</defs>
</svg>

